<?xml version="1.0" encoding="iso-8859-1"?>
<!-- Generator: Adobe Illustrator 17.1.0, SVG Export Plug-In . SVG Version: 6.00 Build 0)  -->
<!DOCTYPE svg PUBLIC "-//W3C//DTD SVG 1.1//EN" "http://www.w3.org/Graphics/SVG/1.1/DTD/svg11.dtd">
<svg version="1.1" id="Capa_1" xmlns="http://www.w3.org/2000/svg" xmlns:xlink="http://www.w3.org/1999/xlink" x="0px" y="0px"
	 viewBox="0 0 196.562 196.562" style="enable-background:new 0 0 196.562 196.562;" xml:space="preserve">
<path style="fill:#000001;" d="M98.281,140.82c14.288,0,38.512-43.202,38.512-76.012c0-32.601-20.943-39.444-38.512-39.444
	c-17.569,0-38.512,6.843-38.512,39.444C59.769,97.446,86.194,140.82,98.281,140.82z M81.517,66.164
	c0-9.244,7.521-16.765,16.765-16.765c9.244,0,16.764,7.521,16.764,16.765s-7.521,16.765-16.764,16.765
	C89.037,82.929,81.517,75.408,81.517,66.164z M195.991,166.569c-1.161,2.803-3.896,4.63-6.929,4.63H7.5
	c-3.033,0-5.768-1.827-6.929-4.63c-1.161-2.803-0.519-6.028,1.626-8.173L42.493,118.1c1.406-1.407,3.314-2.197,5.303-2.197H58.01
	c1.094,2.277,2.241,4.535,3.451,6.758c6.74,12.384,20.487,33.159,36.82,33.159c15.703,0,30.343-17.219,40.328-38.417h11.656
	c1.989,0,3.897,0.79,5.303,2.197l38.797,38.796C196.51,160.541,197.152,163.767,195.991,166.569z"/>
<g>
</g>
<g>
</g>
<g>
</g>
<g>
</g>
<g>
</g>
<g>
</g>
<g>
</g>
<g>
</g>
<g>
</g>
<g>
</g>
<g>
</g>
<g>
</g>
<g>
</g>
<g>
</g>
<g>
</g>
</svg>
